<svg id="SvgjsSvg1246" width="139.05749953994447" height="147" xmlns="http://www.w3.org/2000/svg" version="1.1" xmlns:xlink="http://www.w3.org/1999/xlink" xmlns:svgjs="http://svgjs.com/svgjs" overflow="visible">
    <defs id="SvgjsDefs1247"></defs>
    <g id="SvgjsG1248" fill="#ffffff">
        <defs id="SvgjsDefs1763"></defs>
        <g id="SvgjsG1764" transform="scale(0.3886676156854616)" opacity="1">
            <g id="SvgjsG1765" class="NyhDrbJst" transform="translate(28.6224, 0) scale(1.1230762075683365)" light-content="false" fill="#ffffff">
                <circle cx="133.8" cy="133.8" r="133.8"></circle>
            </g>
            <g id="SvgjsG1766" class="AvrRNjt6bS" transform="translate(79.8509707974273, 76.13244958790172) scale(1.978335587547039)" light-content="true" fill="#1976d2">
                <path d="M69.52 26.196c.104 1.745.206 3.351.451 4.746 1.364-1.431 2.551-3.246 3.422-5.235-.49-.071-2.303.069-3.873.489zm-8.622 7.225c0 1.989 1.5 1.92 1.954 1.884 1.081-.032 2.27-.522 3.492-1.325-.388-1.85-.631-4.016-.805-6.388-2.757 1.361-4.641 3.489-4.641 5.829z"></path>
                <path d="M99.763 29.503C101.242 16.194 89.562 3.89 73.682 2.022a34.934 34.934 0 0 0-4.069-.244c-14.156 0-26.023 8.791-27.377 20.948-1.479 13.309 10.196 25.614 26.079 27.481 1.363.162 2.709.24 4.036.24 1.465 0 2.902-.1 4.308-.28 5.686 6.187 11.622 7.855 14.942 7.855 2.131 0 3.184-.688 2.409-1.298-4.847-3.849-5.876-7.604-5.569-10.558 6.231-3.725 10.537-9.629 11.322-16.663zM76.682 41.234l-1.654-3.531c4.155-1.036 6.711-3.013 6.711-6.202 0-1.152-.388-3.874-4.156-5.096-1.535 3.49-3.873 6.736-6.597 9.075.14.454 1.032 2.051 1.205 2.399l-3.596 2.305c-.176-.35-1.064-1.945-1.204-2.363-1.746.977-3.667 1.605-5.623 1.605-3.069 0-5.093-1.957-5.093-5.201 0-4.818 3.701-8.623 8.658-10.648-.073-1.501-.073-3.037-.073-4.643-2.617.071-5.444.141-6.839.105l-.212-4.084c1.606.035 4.536.035 7.124.035.067-1.5.103-3.245.17-4.712l4.547.348c-.067.348-.182 3.108-.286 4.225 3.806-.175 8.586-.628 12.463-1.466l.381 4.224c-3.837.697-8.865 1.047-13.052 1.187-.036 1.222-.071 2.409-.071 3.562 1.465-.35 3.597-.559 5.235-.455.14-.523.245-1.048.278-1.57l4.296 1.082c-.106.385-.211.769-.278 1.153 5.059 1.397 7.293 4.921 7.293 8.831.003 4.786-3.081 8.245-9.627 9.835z"></path>
                <path d="M39.309 22.324c.132-1.267.725-3.235.978-3.988-2.833-.803-6.475-1.413-9.623-1.413-1.346 0-2.708.083-4.089.244C10.614 19.036-1.124 31.34.361 44.649c.79 7.035 5.118 12.939 11.38 16.666.308 2.95-.727 6.707-5.599 10.558-.778.607.281 1.296 2.423 1.296 3.336 0 9.304-1.667 15.016-7.854a34.252 34.252 0 0 0 8.387.039c10.604-1.242 19.286-6.638 24.03-15.483-10.697-5.34-17.955-15.423-16.689-27.547zM33.68 56.265l-2.15-7.937h-8.053l-2.072 7.937h-5.864l8.522-30.062h7.271l8.405 30.062H33.68z"></path>
                <path d="M27.542 30.972h-.117c-.391 1.877-.899 4.339-1.33 6.099l-1.798 6.88h6.411L28.91 37.11c-.469-1.877-.977-4.301-1.368-6.138z"></path>
            </g>
            <g id="SvgjsG1767" class="text" transform="translate(-3.8400001525878906, 377.3752001525879)" light-content="false" fill="#ffffff">
                <path d="M18.12 -31.02C19.72 -32.34 22.04 -33 25.08 -33C28.08 -33 30.74 -32.32 33.06 -30.96L36.54 -40.08C35.02 -40.96 33.19 -41.64 31.05 -42.12C28.91 -42.6 26.62 -42.84 24.18 -42.84C17.74 -42.84 12.74 -41.27 9.18 -38.13C5.62 -34.99 3.84 -30.56 3.84 -24.84L3.84 0L15.72 0L15.72 -14.4L31.86 -14.4L31.86 -23.58L15.72 -23.58L15.72 -25.02C15.72 -27.7 16.52 -29.7 18.12 -31.02Z M79.74 -32.52L68.34 -32.52L68.34 -16.86C68.34 -14.26 67.77 -12.33 66.63 -11.07C65.49 -9.81 64.02 -9.18 62.22 -9.18C60.46 -9.18 59.12 -9.74 58.2 -10.86C57.28 -11.98 56.82 -13.76 56.82 -16.2L56.82 -32.52L45.42 -32.52L45.42 -14.34C45.42 -9.38 46.67 -5.66 49.17 -3.18C51.67 -0.7 55.02 0.54 59.22 0.54C61.1 0.54 62.88 0.2 64.56 -0.48C66.24 -1.16 67.68 -2.16 68.88 -3.48L68.88 0L79.74 0Z M111.96 -11.16L119.58 0L132.3 0L123.24 -13.2C125.88 -14.48 127.91 -16.25 129.33 -18.51C130.75 -20.77 131.46 -23.42 131.46 -26.46C131.46 -29.62 130.7 -32.37 129.18 -34.71C127.66 -37.05 125.5 -38.85 122.7 -40.11C119.9 -41.37 116.6 -42 112.8 -42L93.6 -42L93.6 0L105.48 0L105.48 -11.16ZM117.6 -31.02C118.84 -29.94 119.46 -28.42 119.46 -26.46C119.46 -24.5 118.84 -22.99 117.6 -21.93C116.36 -20.87 114.52 -20.34 112.08 -20.34L105.48 -20.34L105.48 -32.64L112.08 -32.64C114.52 -32.64 116.36 -32.1 117.6 -31.02Z M160.74 -32.82L167.52 -32.82L167.52 -42L142.02 -42L142.02 -32.82L148.86 -32.82L148.86 -9.18L142.02 -9.18L142.02 0L167.52 0L167.52 -9.18L160.74 -9.18Z M207.78 -21.9L207.78 -11.16C205.78 -9.56 203.28 -8.76 200.28 -8.76C197.16 -8.76 194.58 -9.78 192.54 -11.82C190.5 -13.86 189.48 -16.8 189.48 -20.64C189.48 -24.44 190.57 -27.45 192.75 -29.67C194.93 -31.89 197.84 -33 201.48 -33C205.44 -33 208.84 -31.44 211.68 -28.32L219.24 -35.16C217.16 -37.64 214.56 -39.54 211.44 -40.86C208.32 -42.18 204.8 -42.84 200.88 -42.84C196.4 -42.84 192.38 -41.9 188.82 -40.02C185.26 -38.14 182.48 -35.51 180.48 -32.13C178.48 -28.75 177.48 -24.9 177.48 -20.58C177.48 -16.1 178.43 -12.25 180.33 -9.03C182.23 -5.81 184.8 -3.36 188.04 -1.68C191.28 0 194.86 0.84 198.78 0.84C203.46 0.84 207.22 -0.3 210.06 -2.58L210.06 0L218.28 0L218.28 -21.9Z M265.68 -32.52L254.28 -32.52L254.28 -29.7C252.08 -31.94 249.06 -33.06 245.22 -33.06C242.26 -33.06 239.57 -32.38 237.15 -31.02C234.73 -29.66 232.81 -27.71 231.39 -25.17C229.97 -22.63 229.26 -19.68 229.26 -16.32C229.26 -12.96 229.97 -10 231.39 -7.44C232.81 -4.88 234.73 -2.91 237.15 -1.53C239.57 -0.15 242.26 0.54 245.22 0.54C249.5 0.54 252.7 -0.72 254.82 -3.24L254.82 0L265.68 0ZM252.54 -10.59C251.26 -9.21 249.62 -8.52 247.62 -8.52C245.62 -8.52 243.98 -9.21 242.7 -10.59C241.42 -11.97 240.78 -13.88 240.78 -16.32C240.78 -18.72 241.42 -20.6 242.7 -21.96C243.98 -23.32 245.62 -24 247.62 -24C249.62 -24 251.26 -23.32 252.54 -21.96C253.82 -20.6 254.46 -18.72 254.46 -16.32C254.46 -13.88 253.82 -11.97 252.54 -10.59Z M309.93 -29.46C307.47 -31.86 304.22 -33.06 300.18 -33.06C298.1 -33.06 296.18 -32.71 294.42 -32.01C292.66 -31.31 291.14 -30.3 289.86 -28.98L289.86 -32.52L279 -32.52L279 0L290.4 0L290.4 -15.72C290.4 -18.28 290.99 -20.2 292.17 -21.48C293.35 -22.76 294.92 -23.4 296.88 -23.4C300.44 -23.4 302.22 -21.18 302.22 -16.74L302.22 0L313.62 0L313.62 -18.6C313.62 -23.44 312.39 -27.06 309.93 -29.46Z M361.62 -32.52L350.22 -32.52L350.22 -29.7C348.02 -31.94 345 -33.06 341.16 -33.06C338.2 -33.06 335.51 -32.38 333.09 -31.02C330.67 -29.66 328.75 -27.71 327.33 -25.17C325.91 -22.63 325.2 -19.68 325.2 -16.32C325.2 -12.96 325.91 -10 327.33 -7.44C328.75 -4.88 330.67 -2.91 333.09 -1.53C335.51 -0.15 338.2 0.54 341.16 0.54C345.44 0.54 348.64 -0.72 350.76 -3.24L350.76 0L361.62 0ZM348.48 -10.59C347.2 -9.21 345.56 -8.52 343.56 -8.52C341.56 -8.52 339.92 -9.21 338.64 -10.59C337.36 -11.97 336.72 -13.88 336.72 -16.32C336.72 -18.72 337.36 -20.6 338.64 -21.96C339.92 -23.32 341.56 -24 343.56 -24C345.56 -24 347.2 -23.32 348.48 -21.96C349.76 -20.6 350.4 -18.72 350.4 -16.32C350.4 -13.88 349.76 -11.97 348.48 -10.59Z"></path>
            </g>
        </g>
    </g>
</svg>