<svg id="SvgjsSvg1282" width="300" height="53.52345565217534" xmlns="http://www.w3.org/2000/svg" version="1.1" xmlns:xlink="http://www.w3.org/1999/xlink" xmlns:svgjs="http://svgjs.com/svgjs" overflow="visible"><defs id="SvgjsDefs1283"></defs><g id="SvgjsG1284" fill="#ffffff"><defs id="SvgjsDefs1875"></defs><g id="SvgjsG1876" transform="scale(0.6969199954710331)" opacity="1"><g id="SvgjsG1877" class="lgTCddYrn" transform="translate(-0.252029961062244, -1.9127078671005637) scale(1.0757658703132218)" light-content="false" fill="#ffffff"><path d="M69.52 26.196c.104 1.745.206 3.351.451 4.746 1.364-1.431 2.551-3.246 3.422-5.235-.49-.071-2.303.069-3.873.489zm-8.622 7.225c0 1.989 1.5 1.92 1.954 1.884 1.081-.032 2.27-.522 3.492-1.325-.388-1.85-.631-4.016-.805-6.388-2.757 1.361-4.641 3.489-4.641 5.829z"></path><path d="M99.763 29.503C101.242 16.194 89.562 3.89 73.682 2.022a34.934 34.934 0 0 0-4.069-.244c-14.156 0-26.023 8.791-27.377 20.948-1.479 13.309 10.196 25.614 26.079 27.481 1.363.162 2.709.24 4.036.24 1.465 0 2.902-.1 4.308-.28 5.686 6.187 11.622 7.855 14.942 7.855 2.131 0 3.184-.688 2.409-1.298-4.847-3.849-5.876-7.604-5.569-10.558 6.231-3.725 10.537-9.629 11.322-16.663zM76.682 41.234l-1.654-3.531c4.155-1.036 6.711-3.013 6.711-6.202 0-1.152-.388-3.874-4.156-5.096-1.535 3.49-3.873 6.736-6.597 9.075.14.454 1.032 2.051 1.205 2.399l-3.596 2.305c-.176-.35-1.064-1.945-1.204-2.363-1.746.977-3.667 1.605-5.623 1.605-3.069 0-5.093-1.957-5.093-5.201 0-4.818 3.701-8.623 8.658-10.648-.073-1.501-.073-3.037-.073-4.643-2.617.071-5.444.141-6.839.105l-.212-4.084c1.606.035 4.536.035 7.124.035.067-1.5.103-3.245.17-4.712l4.547.348c-.067.348-.182 3.108-.286 4.225 3.806-.175 8.586-.628 12.463-1.466l.381 4.224c-3.837.697-8.865 1.047-13.052 1.187-.036 1.222-.071 2.409-.071 3.562 1.465-.35 3.597-.559 5.235-.455.14-.523.245-1.048.278-1.57l4.296 1.082c-.106.385-.211.769-.278 1.153 5.059 1.397 7.293 4.921 7.293 8.831.003 4.786-3.081 8.245-9.627 9.835z"></path><path d="M39.309 22.324c.132-1.267.725-3.235.978-3.988-2.833-.803-6.475-1.413-9.623-1.413-1.346 0-2.708.083-4.089.244C10.614 19.036-1.124 31.34.361 44.649c.79 7.035 5.118 12.939 11.38 16.666.308 2.95-.727 6.707-5.599 10.558-.778.607.281 1.296 2.423 1.296 3.336 0 9.304-1.667 15.016-7.854a34.252 34.252 0 0 0 8.387.039c10.604-1.242 19.286-6.638 24.03-15.483-10.697-5.34-17.955-15.423-16.689-27.547zM33.68 56.265l-2.15-7.937h-8.053l-2.072 7.937h-5.864l8.522-30.062h7.271l8.405 30.062H33.68z"></path><path d="M27.542 30.972h-.117c-.391 1.877-.899 4.339-1.33 6.099l-1.798 6.88h6.411L28.91 37.11c-.469-1.877-.977-4.301-1.368-6.138z"></path></g><g id="SvgjsG1878" class="text" transform="translate(134.30547937080357, 56.99999923706055)" light-content="false" fill="#ffffff"><path d="M3.9 -37.2L3.9 0L12.9 0L12.9 -13.74L28.8 -13.74L28.8 -21.84L12.9 -21.84L12.9 -28.86L31.86 -28.86L31.86 -37.2Z M44.76 -1.77C46.24 -0.27 48.36 0.48 51.12 0.48C53.24 0.48 55.01 0.08 56.43 -0.72C57.85 -1.52 59.2 -2.72 60.48 -4.32L60.96 -4.32L61.32 0L69.24 0L69.24 -28.32L60.24 -28.32L60.24 -9.72C58.92 -8.36 57.04 -7.68 54.6 -7.68C53.48 -7.68 52.46 -7.84 51.54 -8.16L51.54 -28.32L42.54 -28.32L42.54 -8.46C42.54 -5.5 43.28 -3.27 44.76 -1.77Z M105.66 -0.63C106.66 -0.01 108.08 0.3 109.92 0.3C112.24 0.3 113.96 0.12 115.08 -0.24L115.08 -5.28L112.68 -5.82L109.08 -10.74C108.2 -11.86 107.33 -12.73 106.47 -13.35C105.61 -13.97 104.58 -14.44 103.38 -14.76L103.38 -15.3C105.9 -16.5 107.83 -18.05 109.17 -19.95C110.51 -21.85 111.18 -24.06 111.18 -26.58C111.18 -30.34 109.83 -33.15 107.13 -35.01C104.43 -36.87 100.6 -37.8 95.64 -37.8C90.8 -37.8 86.58 -37.2 82.98 -36L82.98 0L91.92 0L91.92 -13.32L94.08 -13.32C95.32 -13.28 96.3 -13.07 97.02 -12.69C97.74 -12.31 98.28 -11.88 98.64 -11.4C99 -10.92 99.48 -10.14 100.08 -9.06L103.14 -3.48C103.82 -2.2 104.66 -1.25 105.66 -0.63ZM100.08 -20.58L91.92 -20.58L91.92 -29.58C93.04 -29.82 94.28 -29.94 95.64 -29.94C97.96 -29.94 99.65 -29.61 100.71 -28.95C101.77 -28.29 102.3 -27.14 102.3 -25.5C102.3 -23.3 101.56 -21.66 100.08 -20.58Z M126.3 -37.2L126.3 0L135.3 0L135.3 -37.2Z M152.46 -3.87C155.42 -0.89 159.94 0.6 166.02 0.6C170.58 0.6 174.22 -0.17 176.94 -1.71C179.66 -3.25 181.02 -5.34 181.02 -7.98L181.02 -17.7L176.58 -21.3L164.16 -21.3L164.16 -13.8L172.14 -13.8L172.14 -8.1C171.18 -7.9 170.36 -7.77 169.68 -7.71C169 -7.65 168.06 -7.62 166.86 -7.62C164.42 -7.62 162.48 -7.96 161.04 -8.64C159.6 -9.32 158.57 -10.39 157.95 -11.85C157.33 -13.31 157.02 -15.3 157.02 -17.82C157.02 -21.78 157.5 -25.42 158.46 -28.74C160.66 -29.22 162.86 -29.46 165.06 -29.46C167.78 -29.46 169.96 -29.3 171.6 -28.98L172.2 -24.78L179.58 -24.78C179.82 -25.7 180.01 -26.87 180.15 -28.29C180.29 -29.71 180.36 -31.1 180.36 -32.46L180.36 -34.98C176.44 -36.86 171.92 -37.8 166.8 -37.8C162.68 -37.8 159.22 -36.94 156.42 -35.22C153.62 -33.5 151.52 -31.11 150.12 -28.05C148.72 -24.99 148.02 -21.46 148.02 -17.46C148.02 -11.38 149.5 -6.85 152.46 -3.87Z M193.77 -1.56C195.15 -0.2 197.28 0.48 200.16 0.48C202.28 0.48 204.03 0.12 205.41 -0.6C206.79 -1.32 208.04 -2.44 209.16 -3.96L209.64 -3.96L210.18 0L217.74 0L217.74 -19.86C217.74 -22.78 216.76 -24.98 214.8 -26.46C212.84 -27.94 210.02 -28.68 206.34 -28.68C203.7 -28.68 201.41 -28.42 199.47 -27.9C197.53 -27.38 195.66 -26.64 193.86 -25.68L193.86 -24.18C193.86 -22.3 194.12 -20.5 194.64 -18.78L202.08 -18.78L202.68 -21.66C203.52 -21.82 204.48 -21.9 205.56 -21.9C206.76 -21.9 207.59 -21.73 208.05 -21.39C208.51 -21.05 208.74 -20.36 208.74 -19.32L208.74 -16.68C207.42 -16.8 206.38 -16.86 205.62 -16.86C196.34 -16.86 191.7 -13.76 191.7 -7.56C191.7 -4.92 192.39 -2.92 193.77 -1.56ZM206.34 -7.32C205.46 -6.96 204.44 -6.78 203.28 -6.78C201.68 -6.78 200.88 -7.48 200.88 -8.88C200.88 -9.68 201 -10.36 201.24 -10.92C202.36 -11.2 203.54 -11.34 204.78 -11.34C206.38 -11.34 207.74 -11.24 208.86 -11.04L208.86 -8.94C208.06 -8.22 207.22 -7.68 206.34 -7.32Z M231.72 -28.32L231.72 0L240.54 0L240.54 -18.6C242.02 -19.88 244.08 -20.52 246.72 -20.52C248.04 -20.52 249.1 -20.34 249.9 -19.98L249.9 0L258.72 0L258.72 -20.64C258.72 -23.28 258.01 -25.32 256.59 -26.76C255.17 -28.2 253.1 -28.92 250.38 -28.92C246.38 -28.92 243.16 -27.24 240.72 -23.88L240.24 -23.88L239.88 -28.32Z M272.19 -1.56C273.57 -0.2 275.7 0.48 278.58 0.48C280.7 0.48 282.45 0.12 283.83 -0.6C285.21 -1.32 286.46 -2.44 287.58 -3.96L288.06 -3.96L288.6 0L296.16 0L296.16 -19.86C296.16 -22.78 295.18 -24.98 293.22 -26.46C291.26 -27.94 288.44 -28.68 284.76 -28.68C282.12 -28.68 279.83 -28.42 277.89 -27.9C275.95 -27.38 274.08 -26.64 272.28 -25.68L272.28 -24.18C272.28 -22.3 272.54 -20.5 273.06 -18.78L280.5 -18.78L281.1 -21.66C281.94 -21.82 282.9 -21.9 283.98 -21.9C285.18 -21.9 286.01 -21.73 286.47 -21.39C286.93 -21.05 287.16 -20.36 287.16 -19.32L287.16 -16.68C285.84 -16.8 284.8 -16.86 284.04 -16.86C274.76 -16.86 270.12 -13.76 270.12 -7.56C270.12 -4.92 270.81 -2.92 272.19 -1.56ZM284.76 -7.32C283.88 -6.96 282.86 -6.78 281.7 -6.78C280.1 -6.78 279.3 -7.48 279.3 -8.88C279.3 -9.68 279.42 -10.36 279.66 -10.92C280.78 -11.2 281.96 -11.34 283.2 -11.34C284.8 -11.34 286.16 -11.24 287.28 -11.04L287.28 -8.94C286.48 -8.22 285.64 -7.68 284.76 -7.32Z"></path></g></g></g></svg>