<svg id="SvgjsSvg1246" width="140" height="140"  xmlns="http://www.w3.org/2000/svg" version="1.1" xmlns:xlink="http://www.w3.org/1999/xlink" xmlns:svgjs="http://svgjs.com/svgjs" overflow="visible">
    <defs id="SvgjsDefs1247"></defs>
    <g id="SvgjsG1248" fill="#1976d2">
        <defs id="SvgjsDefs1763"></defs>
        <g id="SvgjsG1764" transform="scale(0.3886676156854616)" opacity="1" >
            <g id="SvgjsG1766"  class="AvrRNjt6bS" transform="translate(85, 100) scale(2)" light-content="true" fill="#1976d2">
                <path d="M69.52 26.196c.104 1.745.206 3.351.451 4.746 1.364-1.431 2.551-3.246 3.422-5.235-.49-.071-2.303.069-3.873.489zm-8.622 7.225c0 1.989 1.5 1.92 1.954 1.884 1.081-.032 2.27-.522 3.492-1.325-.388-1.85-.631-4.016-.805-6.388-2.757 1.361-4.641 3.489-4.641 5.829z"></path>
                <path d="M99.763 29.503C101.242 16.194 89.562 3.89 73.682 2.022a34.934 34.934 0 0 0-4.069-.244c-14.156 0-26.023 8.791-27.377 20.948-1.479 13.309 10.196 25.614 26.079 27.481 1.363.162 2.709.24 4.036.24 1.465 0 2.902-.1 4.308-.28 5.686 6.187 11.622 7.855 14.942 7.855 2.131 0 3.184-.688 2.409-1.298-4.847-3.849-5.876-7.604-5.569-10.558 6.231-3.725 10.537-9.629 11.322-16.663zM76.682 41.234l-1.654-3.531c4.155-1.036 6.711-3.013 6.711-6.202 0-1.152-.388-3.874-4.156-5.096-1.535 3.49-3.873 6.736-6.597 9.075.14.454 1.032 2.051 1.205 2.399l-3.596 2.305c-.176-.35-1.064-1.945-1.204-2.363-1.746.977-3.667 1.605-5.623 1.605-3.069 0-5.093-1.957-5.093-5.201 0-4.818 3.701-8.623 8.658-10.648-.073-1.501-.073-3.037-.073-4.643-2.617.071-5.444.141-6.839.105l-.212-4.084c1.606.035 4.536.035 7.124.035.067-1.5.103-3.245.17-4.712l4.547.348c-.067.348-.182 3.108-.286 4.225 3.806-.175 8.586-.628 12.463-1.466l.381 4.224c-3.837.697-8.865 1.047-13.052 1.187-.036 1.222-.071 2.409-.071 3.562 1.465-.35 3.597-.559 5.235-.455.14-.523.245-1.048.278-1.57l4.296 1.082c-.106.385-.211.769-.278 1.153 5.059 1.397 7.293 4.921 7.293 8.831.003 4.786-3.081 8.245-9.627 9.835z"></path>
                <path d="M39.309 22.324c.132-1.267.725-3.235.978-3.988-2.833-.803-6.475-1.413-9.623-1.413-1.346 0-2.708.083-4.089.244C10.614 19.036-1.124 31.34.361 44.649c.79 7.035 5.118 12.939 11.38 16.666.308 2.95-.727 6.707-5.599 10.558-.778.607.281 1.296 2.423 1.296 3.336 0 9.304-1.667 15.016-7.854a34.252 34.252 0 0 0 8.387.039c10.604-1.242 19.286-6.638 24.03-15.483-10.697-5.34-17.955-15.423-16.689-27.547zM33.68 56.265l-2.15-7.937h-8.053l-2.072 7.937h-5.864l8.522-30.062h7.271l8.405 30.062H33.68z"></path>
                <path d="M27.542 30.972h-.117c-.391 1.877-.899 4.339-1.33 6.099l-1.798 6.88h6.411L28.91 37.11c-.469-1.877-.977-4.301-1.368-6.138z"></path>
            </g>
        </g>
    </g>
</svg>